<?xml version="1.0" encoding="UTF-8"?>
<svg id="_Слой_1" data-name="Слой 1" xmlns="http://www.w3.org/2000/svg" viewBox="0 0 20.54 17.93">
  <defs>
    <style>
      .cls-1 {
        fill: #313131;
        fill-rule: evenodd;
        stroke-width: 0px;
      }
    </style>
  </defs>
  <path class="cls-1" d="M14.94,2.32V.93c0-.52-.42-.93-.93-.93s-.93.42-.93.93v1.31h-5.6V.93c0-.52-.42-.93-.93-.93s-.93.42-.93.93v1.42c-1.8.35-2.58,1.55-2.92,3.25h15.36c-.35-1.75-1.17-2.98-3.1-3.28ZM18.23,7.1H2.5c-.07.92-.07,1.93-.07,2.99,0,4.33.01,7.84,4.34,7.84h7.19c4.33,0,4.34-3.51,4.34-7.84,0-1.06,0-2.07-.07-2.99ZM15.25,9.77l-4.76,4.76c-.35.35-.92.35-1.27,0l-3.17-3.17c-.35-.35-.35-.92,0-1.27.35-.35.92-.35,1.27,0l2.54,2.54,4.12-4.12c.35-.35.92-.35,1.27,0,.35.35.35.92,0,1.27Z"/>
</svg>