<?xml version="1.0" encoding="UTF-8"?>
<svg id="_Слой_1" data-name="Слой 1" xmlns="http://www.w3.org/2000/svg" viewBox="0 0 16 15.41">
  <defs>
    <style>
      .cls-1 {
        fill: #a5a5a4;
        fill-rule: evenodd;
        stroke-width: 0px;
      }
    </style>
  </defs>
  <path class="cls-1" d="M15.2,8.35h-1.12v6.18c0,.9-.8.88-.8.88h-2.49c-.97,0-.88-.8-.88-.8,0,0,.01-3.05,0-3.85-.01-.8-.8-.8-.8-.8h-2.2s-.79,0-.8.8c-.01.8,0,3.85,0,3.85,0,0,.08.8-.88.8h-2.49s-.8.01-.8-.88v-6.18H.8s-.8-.19-.8-.96c0-.51.96-1.28.96-1.28L7.46.16S7.66,0,8,0h0s0,0,0,0h0c.34,0,.54.16.54.16l6.5,5.94s.96.77.96,1.28c0,.77-.8.96-.8.96Z"/>
</svg>