<?xml version="1.0" encoding="UTF-8"?>
<svg id="_Слой_1" data-name="Слой 1" xmlns="http://www.w3.org/2000/svg" viewBox="0 0 51 51">
  <defs>
    <style>
      .cls-1 {
        fill: #999;
        fill-rule: evenodd;
        stroke-width: 0px;
      }
    </style>
  </defs>
  <path class="cls-1" d="M51,27.75v-4.51h-6.57c-.42-3.58-1.83-6.86-3.93-9.56l4.62-4.62-3.19-3.19-4.59,4.59c-2.7-2.17-5.98-3.64-9.59-4.11V0h-4.51v6.28c-3.68.38-7.04,1.81-9.82,3.96l-4.37-4.37-3.19,3.19,4.34,4.34c-2.22,2.76-3.71,6.14-4.14,9.84H0v4.51h6.08c.43,3.7,1.92,7.08,4.14,9.84l-4.34,4.34,3.19,3.19,4.37-4.37c2.77,2.15,6.13,3.58,9.82,3.96v6.28h4.51v-6.36c3.61-.47,6.89-1.94,9.59-4.11l4.59,4.59,3.19-3.19-4.62-4.62c2.1-2.71,3.51-5.98,3.93-9.56h6.57ZM38.15,16.03c1.53,2.08,2.57,4.54,2.95,7.21h-7.42c-.18-.69-.46-1.34-.79-1.95l5.26-5.26ZM27.75,9.69c2.7.42,5.17,1.53,7.25,3.12l-5.22,5.22c-.63-.38-1.31-.69-2.02-.9v-7.45ZM23.24,9.61v7.4c-.78.18-1.52.47-2.2.85l-5.26-5.26c2.14-1.58,4.69-2.64,7.46-2.98ZM12.56,15.75l5.23,5.23c-.42.7-.76,1.46-.98,2.27h-7.41c.4-2.8,1.52-5.36,3.16-7.49ZM12.57,35.25c-1.64-2.14-2.77-4.7-3.16-7.49h7.41c.22.81.55,1.57.98,2.27l-5.23,5.23ZM23.24,41.38c-2.77-.35-5.32-1.41-7.46-2.98l5.26-5.26c.68.38,1.42.66,2.2.85v7.4ZM25.25,30.94c-3.01,0-5.45-2.44-5.45-5.45s2.44-5.45,5.45-5.45,5.45,2.44,5.45,5.45-2.44,5.45-5.45,5.45ZM27.75,41.31v-7.45c.72-.21,1.4-.52,2.02-.9l5.22,5.22c-2.07,1.59-4.54,2.7-7.25,3.12ZM38.15,34.97l-5.26-5.26c.34-.61.61-1.26.79-1.95h7.42c-.38,2.68-1.42,5.13-2.95,7.21Z"/>
</svg>