<?xml version="1.0" encoding="UTF-8"?>
<svg id="_Слой_1" data-name="Слой 1" xmlns="http://www.w3.org/2000/svg" viewBox="0 0 15.56 15.71">
  <defs>
    <style>
      .cls-1 {
        fill: #a5a5a4;
        fill-rule: evenodd;
        stroke-width: 0px;
      }
    </style>
  </defs>
  <path class="cls-1" d="M15.27,14l-2.73-2.73c.91-1.18,1.46-2.66,1.46-4.27,0-3.87-3.13-7-7-7S0,3.13,0,7s3.13,7,7,7c1.54,0,2.95-.5,4.11-1.34l2.75,2.75c.39.39,1.02.39,1.41,0,.39-.39.39-1.02,0-1.41ZM1.91,7C1.91,4.19,4.19,1.91,7,1.91s5.09,2.28,5.09,5.09-2.28,5.09-5.09,5.09S1.91,9.81,1.91,7Z"/>
</svg>