<?xml version="1.0" encoding="UTF-8"?>
<svg id="_Слой_1" data-name="Слой 1" xmlns="http://www.w3.org/2000/svg" viewBox="0 0 13.98 17.32">
  <defs>
    <style>
      .cls-1 {
        fill: #313131;
        fill-rule: evenodd;
        stroke-width: 0px;
      }
    </style>
  </defs>
  <path class="cls-1" d="M13.88,13.32s-1.87-3.33-2.04-3.6c-.16-.27-.42-.58-.88-.58s-.85.27-.85.27c0,0-1.56,1.02-3.11,1.02s-2.2-.27-3.1-.64c-.9-.37-.96-.64-1.46-.64s-.78.58-.78.58L.2,12.94s-.2.37-.2.75c0,1.03,1.09,1.49,1.09,1.49,0,0,4.51,1.8,4.92,1.97.41.17,1,.17,1,.17.58,0,.87-.1.87-.1,0,0,4.62-1.89,5.26-2.17.64-.28.85-.83.85-1.15s-.1-.58-.1-.58ZM6.66,9.04c2.5,0,4.52-2.02,4.52-4.52S9.15,0,6.66,0,2.14,2.02,2.14,4.52s2.02,4.52,4.52,4.52Z"/>
</svg>